<?xml version="1.0" encoding="UTF-8"?><svg xmlns="http://www.w3.org/2000/svg" xmlns:xlink="http://www.w3.org/1999/xlink" stroke-dasharray="none" shape-rendering="auto" font-family="'Dialog'" width="654" text-rendering="auto" fill-opacity="1" contentScriptType="text/ecmascript" color-interpolation="auto" color-rendering="auto" preserveAspectRatio="xMidYMid meet" font-size="12px" viewBox="0 0 654 540" fill="black" stroke="black" image-rendering="auto" stroke-miterlimit="10" zoomAndPan="magnify" version="1.0" stroke-linecap="square" stroke-linejoin="miter" contentStyleType="text/css" font-style="normal" height="540" stroke-width="1" stroke-dashoffset="0" font-weight="normal" stroke-opacity="1">
    <!--Generated by the Batik Graphics2D SVG Generator-->
    <defs id="genericDefs"/>
    <g>
        <defs id="defs1">
            <linearGradient x1="190" x2="190" y1="310" gradientUnits="userSpaceOnUse" y2="380" xlink:type="simple" xlink:actuate="onLoad" id="linearGradient1" xlink:show="other" spreadMethod="pad">
                <stop stop-opacity="1" stop-color="rgb(195,209,213)" offset="0%"/>
                <stop stop-opacity="1" stop-color="rgb(195,209,213)" offset="100%"/>
            </linearGradient>
            <clipPath clipPathUnits="userSpaceOnUse" id="clipPath1">
                <path d="M189 149 L341 149 L341 251 L189 251 L189 149 Z"/>
            </clipPath>
            <clipPath clipPathUnits="userSpaceOnUse" id="clipPath2">
                <path d="M199 169 L243 169 L243 182 L199 182 L199 169 Z"/>
            </clipPath>
            <clipPath clipPathUnits="userSpaceOnUse" id="clipPath3">
                <path d="M199 181 L230 181 L230 194 L199 194 L199 181 Z"/>
            </clipPath>
            <clipPath clipPathUnits="userSpaceOnUse" id="clipPath4">
                <path d="M189 193 L326 193 L326 251 L189 251 L189 193 Z"/>
            </clipPath>
            <clipPath clipPathUnits="userSpaceOnUse" id="clipPath5">
                <path d="M190 310 L190 379 L339 379 L339 310 Z"/>
            </clipPath>
            <clipPath clipPathUnits="userSpaceOnUse" id="clipPath6">
                <path d="M221 333 L311 333 L311 346 L221 346 L221 333 Z"/>
            </clipPath>
            <clipPath clipPathUnits="userSpaceOnUse" id="clipPath7">
                <path d="M241 345 L291 345 L291 358 L241 358 L241 345 Z"/>
            </clipPath>
            <clipPath clipPathUnits="userSpaceOnUse" id="clipPath8">
                <path d="M189 309 L341 309 L341 381 L189 381 L189 309 Z"/>
            </clipPath>
            <clipPath clipPathUnits="userSpaceOnUse" id="clipPath9">
                <path d="M9 149 L161 149 L161 251 L9 251 L9 149 Z"/>
            </clipPath>
            <clipPath clipPathUnits="userSpaceOnUse" id="clipPath10">
                <path d="M19 169 L131 169 L131 182 L19 182 L19 169 Z"/>
            </clipPath>
            <clipPath clipPathUnits="userSpaceOnUse" id="clipPath11">
                <path d="M19 181 L43 181 L43 194 L19 194 L19 181 Z"/>
            </clipPath>
            <clipPath clipPathUnits="userSpaceOnUse" id="clipPath12">
                <path d="M9 193 L146 193 L146 251 L9 251 L9 193 Z"/>
            </clipPath>
            <clipPath clipPathUnits="userSpaceOnUse" id="clipPath13">
                <path d="M9 309 L161 309 L161 411 L9 411 L9 309 Z"/>
            </clipPath>
            <clipPath clipPathUnits="userSpaceOnUse" id="clipPath14">
                <path d="M19 329 L131 329 L131 342 L19 342 L19 329 Z"/>
            </clipPath>
            <clipPath clipPathUnits="userSpaceOnUse" id="clipPath15">
                <path d="M19 341 L58 341 L58 354 L19 354 L19 341 Z"/>
            </clipPath>
            <clipPath clipPathUnits="userSpaceOnUse" id="clipPath16">
                <path d="M9 353 L146 353 L146 411 L9 411 L9 353 Z"/>
            </clipPath>
            <clipPath clipPathUnits="userSpaceOnUse" id="clipPath17">
                <path d="M449 289 L601 289 L601 391 L449 391 L449 289 Z"/>
            </clipPath>
            <clipPath clipPathUnits="userSpaceOnUse" id="clipPath18">
                <path d="M459 309 L503 309 L503 322 L459 322 L459 309 Z"/>
            </clipPath>
            <clipPath clipPathUnits="userSpaceOnUse" id="clipPath19">
                <path d="M464 321 L523 321 L523 334 L464 334 L464 321 Z"/>
            </clipPath>
            <clipPath clipPathUnits="userSpaceOnUse" id="clipPath20">
                <path d="M449 333 L586 333 L586 391 L449 391 L449 333 Z"/>
            </clipPath>
            <clipPath clipPathUnits="userSpaceOnUse" id="clipPath21">
                <path d="M449 149 L601 149 L601 251 L449 251 L449 149 Z"/>
            </clipPath>
            <clipPath clipPathUnits="userSpaceOnUse" id="clipPath22">
                <path d="M459 169 L503 169 L503 182 L459 182 L459 169 Z"/>
            </clipPath>
            <clipPath clipPathUnits="userSpaceOnUse" id="clipPath23">
                <path d="M464 181 L517 181 L517 194 L464 194 L464 181 Z"/>
            </clipPath>
            <clipPath clipPathUnits="userSpaceOnUse" id="clipPath24">
                <path d="M449 193 L586 193 L586 251 L449 251 L449 193 Z"/>
            </clipPath>
            <clipPath clipPathUnits="userSpaceOnUse" id="clipPath25">
                <path d="M449 429 L601 429 L601 531 L449 531 L449 429 Z"/>
            </clipPath>
            <clipPath clipPathUnits="userSpaceOnUse" id="clipPath26">
                <path d="M459 449 L503 449 L503 462 L459 462 L459 449 Z"/>
            </clipPath>
            <clipPath clipPathUnits="userSpaceOnUse" id="clipPath27">
                <path d="M464 461 L519 461 L519 474 L464 474 L464 461 Z"/>
            </clipPath>
            <clipPath clipPathUnits="userSpaceOnUse" id="clipPath28">
                <path d="M449 473 L586 473 L586 531 L449 531 L449 473 Z"/>
            </clipPath>
            <clipPath clipPathUnits="userSpaceOnUse" id="clipPath29">
                <path d="M189 429 L332 429 L332 491 L189 491 L189 429 Z"/>
            </clipPath>
            <clipPath clipPathUnits="userSpaceOnUse" id="clipPath30">
                <path d="M195 435 L309 435 L309 470 L195 470 L195 435 Z"/>
            </clipPath>
            <clipPath clipPathUnits="userSpaceOnUse" id="clipPath31">
                <path d="M189 9 L341 9 L341 111 L189 111 L189 9 Z"/>
            </clipPath>
            <clipPath clipPathUnits="userSpaceOnUse" id="clipPath32">
                <path d="M199 29 L243 29 L243 42 L199 42 L199 29 Z"/>
            </clipPath>
            <clipPath clipPathUnits="userSpaceOnUse" id="clipPath33">
                <path d="M199 41 L222 41 L222 54 L199 54 L199 41 Z"/>
            </clipPath>
            <clipPath clipPathUnits="userSpaceOnUse" id="clipPath34">
                <path d="M189 53 L326 53 L326 111 L189 111 L189 53 Z"/>
            </clipPath>
            <clipPath clipPathUnits="userSpaceOnUse" id="clipPath35">
                <path d="M-1 -1 L655 -1 L655 541 L-1 541 L-1 -1 Z"/>
            </clipPath>
            <clipPath clipPathUnits="userSpaceOnUse" id="clipPath36">
                <path d="M244 294 L257 294 L257 312 L244 312 L244 294 Z"/>
            </clipPath>
            <clipPath clipPathUnits="userSpaceOnUse" id="clipPath37">
                <path d="M339 201 L352 201 L352 220 L339 220 L339 201 Z"/>
            </clipPath>
            <clipPath clipPathUnits="userSpaceOnUse" id="clipPath38">
                <path d="M339 64 L357 64 L357 77 L339 77 L339 64 Z"/>
            </clipPath>
            <clipPath clipPathUnits="userSpaceOnUse" id="clipPath39">
                <path d="M339 24 L357 24 L357 37 L339 37 L339 24 Z"/>
            </clipPath>
        </defs>
        <g font-size="11px" fill="rgb(195,209,213)" font-family="'.AppleSystemUIFont'" stroke-linejoin="round" stroke="rgb(195,209,213)" stroke-width="0" stroke-miterlimit="0">
            <rect x="190" width="135" height="56" y="194" clip-path="url(#clipPath1)" stroke="none"/>
            <text x="200" font-size="9px" y="179" clip-path="url(#clipPath2)" fill="black" stroke="none" xml:space="preserve">«device»</text>
            <text x="200" font-size="9px" y="191" clip-path="url(#clipPath3)" fill="black" stroke="none" xml:space="preserve">Server</text>
        </g>
        <g font-size="11px" stroke-width="1.1" font-family="'.AppleSystemUIFont'" stroke-linecap="butt">
            <rect fill="none" x="190" width="134" height="55" y="194" clip-path="url(#clipPath4)"/>
            <line y2="194" fill="none" x1="190" clip-path="url(#clipPath4)" x2="325" y1="194"/>
            <rect fill="none" x="190" width="134" height="84" y="165" clip-path="url(#clipPath1)"/>
            <line y2="150" fill="none" x1="190" clip-path="url(#clipPath1)" x2="205" y1="165"/>
            <line y2="150" fill="none" x1="324" clip-path="url(#clipPath1)" x2="339" y1="165"/>
            <line y2="235" fill="none" x1="324" clip-path="url(#clipPath1)" x2="339" y1="250"/>
            <line y2="150" fill="none" x1="205" clip-path="url(#clipPath1)" x2="340" y1="150"/>
            <line y2="235" fill="none" x1="339" clip-path="url(#clipPath1)" x2="339" y1="150"/>
            <rect x="190" y="310" clip-path="url(#clipPath5)" fill="url(#linearGradient1)" width="150" height="70" stroke="none"/>
            <text x="222" xml:space="preserve" font-size="9px" y="343" clip-path="url(#clipPath6)" stroke="none">«deployment spec»</text>
            <text x="242" xml:space="preserve" font-size="9px" y="355" clip-path="url(#clipPath7)" stroke="none">ShellScript</text>
            <rect x="190" y="310" clip-path="url(#clipPath8)" fill="none" width="149" rx="0" ry="0" height="69"/>
            <rect x="10" y="194" clip-path="url(#clipPath9)" fill="rgb(195,209,213)" width="135" height="56" stroke="none"/>
            <text x="20" xml:space="preserve" font-size="9px" y="179" clip-path="url(#clipPath10)" stroke="none">«executionEnvironment»</text>
            <text x="20" xml:space="preserve" font-size="9px" y="191" clip-path="url(#clipPath11)" stroke="none">Bash</text>
            <rect fill="none" x="10" width="134" height="55" y="194" clip-path="url(#clipPath12)"/>
            <line y2="194" fill="none" x1="10" clip-path="url(#clipPath12)" x2="145" y1="194"/>
            <rect fill="none" x="10" width="134" height="84" y="165" clip-path="url(#clipPath9)"/>
            <line y2="150" fill="none" x1="10" clip-path="url(#clipPath9)" x2="25" y1="165"/>
            <line y2="150" fill="none" x1="144" clip-path="url(#clipPath9)" x2="159" y1="165"/>
            <line y2="235" fill="none" x1="144" clip-path="url(#clipPath9)" x2="159" y1="250"/>
            <line y2="150" fill="none" x1="25" clip-path="url(#clipPath9)" x2="160" y1="150"/>
            <line y2="235" fill="none" x1="159" clip-path="url(#clipPath9)" x2="159" y1="150"/>
            <rect x="10" y="354" clip-path="url(#clipPath13)" fill="rgb(195,209,213)" width="135" height="56" stroke="none"/>
            <text x="20" xml:space="preserve" font-size="9px" y="339" clip-path="url(#clipPath14)" stroke="none">«executionEnvironment»</text>
            <text x="20" xml:space="preserve" font-size="9px" y="351" clip-path="url(#clipPath15)" stroke="none">Python3</text>
            <rect fill="none" x="10" width="134" height="55" y="354" clip-path="url(#clipPath16)"/>
            <line y2="354" fill="none" x1="10" clip-path="url(#clipPath16)" x2="145" y1="354"/>
            <rect fill="none" x="10" width="134" height="84" y="325" clip-path="url(#clipPath13)"/>
            <line y2="310" fill="none" x1="10" clip-path="url(#clipPath13)" x2="25" y1="325"/>
            <line y2="310" fill="none" x1="144" clip-path="url(#clipPath13)" x2="159" y1="325"/>
            <line y2="395" fill="none" x1="144" clip-path="url(#clipPath13)" x2="159" y1="410"/>
            <line y2="310" fill="none" x1="25" clip-path="url(#clipPath13)" x2="160" y1="310"/>
            <line y2="395" fill="none" x1="159" clip-path="url(#clipPath13)" x2="159" y1="310"/>
            <rect x="450" y="334" clip-path="url(#clipPath17)" fill="rgb(195,209,213)" width="135" height="56" stroke="none"/>
            <text x="460" xml:space="preserve" font-size="9px" y="319" clip-path="url(#clipPath18)" stroke="none">«device»</text>
            <text x="465" xml:space="preserve" font-size="9px" y="331" clip-path="url(#clipPath19)" stroke="none">LDAP-Server</text>
            <rect fill="none" x="450" width="134" height="55" y="334" clip-path="url(#clipPath20)"/>
            <line y2="334" fill="none" x1="450" clip-path="url(#clipPath20)" x2="585" y1="334"/>
            <rect fill="none" x="450" width="134" height="84" y="305" clip-path="url(#clipPath17)"/>
            <line y2="290" fill="none" x1="450" clip-path="url(#clipPath17)" x2="465" y1="305"/>
            <line y2="290" fill="none" x1="584" clip-path="url(#clipPath17)" x2="599" y1="305"/>
            <line y2="375" fill="none" x1="584" clip-path="url(#clipPath17)" x2="599" y1="390"/>
            <line y2="290" fill="none" x1="465" clip-path="url(#clipPath17)" x2="600" y1="290"/>
            <line y2="375" fill="none" x1="599" clip-path="url(#clipPath17)" x2="599" y1="290"/>
            <rect x="450" y="194" clip-path="url(#clipPath21)" fill="rgb(195,209,213)" width="135" height="56" stroke="none"/>
            <text x="460" xml:space="preserve" font-size="9px" y="179" clip-path="url(#clipPath22)" stroke="none">«device»</text>
            <text x="465" xml:space="preserve" font-size="9px" y="191" clip-path="url(#clipPath23)" stroke="none">SQL-Server</text>
            <rect fill="none" x="450" width="134" height="55" y="194" clip-path="url(#clipPath24)"/>
            <line y2="194" fill="none" x1="450" clip-path="url(#clipPath24)" x2="585" y1="194"/>
            <rect fill="none" x="450" width="134" height="84" y="165" clip-path="url(#clipPath21)"/>
            <line y2="150" fill="none" x1="450" clip-path="url(#clipPath21)" x2="465" y1="165"/>
            <line y2="150" fill="none" x1="584" clip-path="url(#clipPath21)" x2="599" y1="165"/>
            <line y2="235" fill="none" x1="584" clip-path="url(#clipPath21)" x2="599" y1="250"/>
            <line y2="150" fill="none" x1="465" clip-path="url(#clipPath21)" x2="600" y1="150"/>
            <line y2="235" fill="none" x1="599" clip-path="url(#clipPath21)" x2="599" y1="150"/>
            <rect x="450" y="474" clip-path="url(#clipPath25)" fill="rgb(195,209,213)" width="135" height="56" stroke="none"/>
            <text x="460" xml:space="preserve" font-size="9px" y="459" clip-path="url(#clipPath26)" stroke="none">«device»</text>
            <text x="465" xml:space="preserve" font-size="9px" y="471" clip-path="url(#clipPath27)" stroke="none">Web-Server</text>
            <rect fill="none" x="450" width="134" height="55" y="474" clip-path="url(#clipPath28)"/>
            <line y2="474" fill="none" x1="450" clip-path="url(#clipPath28)" x2="585" y1="474"/>
            <rect fill="none" x="450" width="134" height="84" y="445" clip-path="url(#clipPath25)"/>
            <line y2="430" fill="none" x1="450" clip-path="url(#clipPath25)" x2="465" y1="445"/>
            <line y2="430" fill="none" x1="584" clip-path="url(#clipPath25)" x2="599" y1="445"/>
            <line y2="515" fill="none" x1="584" clip-path="url(#clipPath25)" x2="599" y1="530"/>
            <line y2="430" fill="none" x1="465" clip-path="url(#clipPath25)" x2="600" y1="430"/>
            <line y2="515" fill="none" x1="599" clip-path="url(#clipPath25)" x2="599" y1="430"/>
            <path fill="rgb(255,255,204)" d="M190 430 L190 430 L318 430 L330 442 L330 489 L190 489 L190 430 ZM190 430" fill-rule="evenodd" clip-path="url(#clipPath29)" stroke="none"/>
            <text x="196" xml:space="preserve" font-size="9px" y="445" clip-path="url(#clipPath30)" stroke="none">SQL-Server, LDAP,server</text>
            <text x="196" xml:space="preserve" font-size="9px" y="456" clip-path="url(#clipPath30)" stroke="none">and Web-Server can be</text>
            <text x="196" xml:space="preserve" font-size="9px" y="467" clip-path="url(#clipPath30)" stroke="none">the same physical server.</text>
            <line y2="430" fill="none" x1="190" clip-path="url(#clipPath29)" x2="318" y1="430"/>
            <line y2="442" fill="none" x1="318" clip-path="url(#clipPath29)" x2="330" y1="430"/>
            <line y2="489" fill="none" x1="330" clip-path="url(#clipPath29)" x2="330" y1="442"/>
            <line y2="489" fill="none" x1="330" clip-path="url(#clipPath29)" x2="190" y1="489"/>
            <line y2="430" fill="none" x1="190" clip-path="url(#clipPath29)" x2="190" y1="489"/>
            <line y2="430" fill="none" x1="190" clip-path="url(#clipPath29)" x2="190" y1="430"/>
            <line y2="442" fill="none" x1="318" clip-path="url(#clipPath29)" x2="318" y1="430"/>
            <line y2="442" fill="none" x1="318" clip-path="url(#clipPath29)" x2="331" y1="442"/>
            <rect x="190" y="54" clip-path="url(#clipPath31)" fill="rgb(195,209,213)" width="135" height="56" stroke="none"/>
            <text x="200" xml:space="preserve" font-size="9px" y="39" clip-path="url(#clipPath32)" stroke="none">«device»</text>
            <text x="200" xml:space="preserve" font-size="9px" y="51" clip-path="url(#clipPath33)" stroke="none">Data</text>
            <rect fill="none" x="190" width="134" height="55" y="54" clip-path="url(#clipPath34)"/>
            <line y2="54" fill="none" x1="190" clip-path="url(#clipPath34)" x2="325" y1="54"/>
            <rect fill="none" x="190" width="134" height="84" y="25" clip-path="url(#clipPath31)"/>
            <line y2="10" fill="none" x1="190" clip-path="url(#clipPath31)" x2="205" y1="25"/>
            <line y2="10" fill="none" x1="324" clip-path="url(#clipPath31)" x2="339" y1="25"/>
            <line y2="95" fill="none" x1="324" clip-path="url(#clipPath31)" x2="339" y1="110"/>
            <line y2="10" fill="none" x1="205" clip-path="url(#clipPath31)" x2="340" y1="10"/>
            <line y2="95" fill="none" x1="339" clip-path="url(#clipPath31)" x2="339" y1="10"/>
            <line clip-path="url(#clipPath35)" fill="none" text-rendering="optimizeLegibility" x1="250" x2="250" y1="250" y2="310" stroke-dasharray="5,5,5,5,5,5,5,5,5,5"/>
            <line clip-path="url(#clipPath36)" fill="none" text-rendering="optimizeLegibility" x1="245" x2="250" y1="295" y2="310"/>
            <line clip-path="url(#clipPath36)" fill="none" text-rendering="optimizeLegibility" x1="250" x2="255" y1="310" y2="295"/>
            <line clip-path="url(#clipPath35)" fill="none" text-rendering="optimizeLegibility" x1="160" x2="190" y1="210" y2="210"/>
            <line clip-path="url(#clipPath35)" fill="none" text-rendering="optimizeLegibility" x1="210" x2="130" y1="250" y2="310"/>
            <line clip-path="url(#clipPath35)" fill="none" text-rendering="optimizeLegibility" x1="450" x2="340" y1="210" y2="210"/>
            <polygon text-rendering="optimizeLegibility" clip-path="url(#clipPath37)" points=" 340 210 350 202 350 218" stroke="none"/>
        </g>
        <g stroke-linecap="butt" font-size="9px" fill="white" text-rendering="optimizeLegibility" font-family="'.AppleSystemUIFont'" stroke="white" stroke-width="1.1">
            <polygon fill="none" points=" 340 210 350 202 350 218" clip-path="url(#clipPath37)"/>
            <line clip-path="url(#clipPath35)" fill="none" x1="450" x2="395" y1="350" y2="350" stroke="black"/>
            <line clip-path="url(#clipPath35)" fill="none" x1="395" x2="395" y1="350" y2="210" stroke="black"/>
            <line clip-path="url(#clipPath35)" fill="none" x1="395" x2="340" y1="210" y2="210" stroke="black"/>
            <polygon fill="black" clip-path="url(#clipPath37)" points=" 340 210 350 202 350 218" stroke="none"/>
            <polygon fill="none" points=" 340 210 350 202 350 218" clip-path="url(#clipPath37)"/>
            <line clip-path="url(#clipPath35)" fill="none" x1="450" x2="395" y1="490" y2="490" stroke="black"/>
            <line clip-path="url(#clipPath35)" fill="none" x1="395" x2="395" y1="490" y2="210" stroke="black"/>
            <line clip-path="url(#clipPath35)" fill="none" x1="395" x2="340" y1="210" y2="210" stroke="black"/>
            <polygon fill="black" clip-path="url(#clipPath37)" points=" 340 210 350 202 350 218" stroke="none"/>
            <polygon fill="none" points=" 340 210 350 202 350 218" clip-path="url(#clipPath37)"/>
            <line clip-path="url(#clipPath35)" fill="none" x1="510" x2="510" y1="150" y2="70" stroke-dasharray="5,5,5,5,5,5,5,5,5,5" stroke="black"/>
            <line clip-path="url(#clipPath35)" fill="none" x1="510" x2="340" y1="70" y2="70" stroke-dasharray="5,5,5,5,5,5,5,5,5,5" stroke="black"/>
            <line clip-path="url(#clipPath38)" fill="none" x1="355" x2="340" y1="65" y2="70" stroke="black"/>
            <line clip-path="url(#clipPath38)" fill="none" x1="340" x2="355" y1="70" y2="75" stroke="black"/>
            <line clip-path="url(#clipPath35)" fill="none" x1="250" x2="250" y1="150" y2="110" stroke="black"/>
            <line clip-path="url(#clipPath35)" fill="none" x1="600" x2="630" y1="350" y2="350" stroke-dasharray="5,5,5,5,5,5,5,5,5,5" stroke="black"/>
            <line clip-path="url(#clipPath35)" fill="none" x1="630" x2="630" y1="350" y2="30" stroke-dasharray="5,5,5,5,5,5,5,5,5,5" stroke="black"/>
            <line clip-path="url(#clipPath35)" fill="none" x1="630" x2="340" y1="30" y2="30" stroke-dasharray="5,5,5,5,5,5,5,5,5,5" stroke="black"/>
            <line clip-path="url(#clipPath39)" fill="none" x1="355" x2="340" y1="25" y2="30" stroke="black"/>
            <line clip-path="url(#clipPath39)" fill="none" x1="340" x2="355" y1="30" y2="35" stroke="black"/>
        </g>
    </g>
    <rect x="190" y="150" fill-opacity="0" width="150" id="Server" height="100" stroke-opacity="0"/>
    <rect x="190" y="310" fill-opacity="0" width="150" id="ShellScript" height="70" stroke-opacity="0"/>
    <rect x="10" y="150" fill-opacity="0" width="150" id="Bash" height="100" stroke-opacity="0"/>
    <rect x="10" y="310" fill-opacity="0" width="150" id="Python3" height="100" stroke-opacity="0"/>
    <rect x="450" y="290" fill-opacity="0" width="150" id="LDAP-Server" height="100" stroke-opacity="0"/>
    <rect x="450" y="150" fill-opacity="0" width="150" id="SQL-Server" height="100" stroke-opacity="0"/>
    <rect x="450" y="430" fill-opacity="0" width="150" id="Web-Server" height="100" stroke-opacity="0"/>
    <rect x="190" width="141" fill-opacity="0" height="60" y="430" stroke-opacity="0"/>
    <rect x="190" y="10" fill-opacity="0" width="150" id="Data" height="100" stroke-opacity="0"/>
</svg>
