<?xml version="1.0" encoding="UTF-8"?><svg xmlns="http://www.w3.org/2000/svg" xmlns:xlink="http://www.w3.org/1999/xlink" stroke-dasharray="none" shape-rendering="auto" font-family="'Dialog'" width="678" text-rendering="auto" fill-opacity="1" contentScriptType="text/ecmascript" color-interpolation="auto" color-rendering="auto" preserveAspectRatio="xMidYMid meet" font-size="12px" viewBox="0 0 678 280" fill="black" stroke="black" image-rendering="auto" stroke-miterlimit="10" zoomAndPan="magnify" version="1.0" stroke-linecap="square" stroke-linejoin="miter" contentStyleType="text/css" font-style="normal" height="280" stroke-width="1" stroke-dashoffset="0" font-weight="normal" stroke-opacity="1">
    <!--Generated by the Batik Graphics2D SVG Generator-->
    <defs id="genericDefs"/>
    <g>
        <defs id="defs1">
            <clipPath clipPathUnits="userSpaceOnUse" id="clipPath1">
                <path d="M9 9 L161 9 L161 111 L9 111 L9 9 Z"/>
            </clipPath>
            <clipPath clipPathUnits="userSpaceOnUse" id="clipPath2">
                <path d="M19 29 L63 29 L63 42 L19 42 L19 29 Z"/>
            </clipPath>
            <clipPath clipPathUnits="userSpaceOnUse" id="clipPath3">
                <path d="M19 41 L50 41 L50 54 L19 54 L19 41 Z"/>
            </clipPath>
            <clipPath clipPathUnits="userSpaceOnUse" id="clipPath4">
                <path d="M9 53 L146 53 L146 111 L9 111 L9 53 Z"/>
            </clipPath>
            <clipPath clipPathUnits="userSpaceOnUse" id="clipPath5">
                <path d="M309 9 L461 9 L461 111 L309 111 L309 9 Z"/>
            </clipPath>
            <clipPath clipPathUnits="userSpaceOnUse" id="clipPath6">
                <path d="M319 29 L363 29 L363 42 L319 42 L319 29 Z"/>
            </clipPath>
            <clipPath clipPathUnits="userSpaceOnUse" id="clipPath7">
                <path d="M319 41 L355 41 L355 54 L319 54 L319 41 Z"/>
            </clipPath>
            <clipPath clipPathUnits="userSpaceOnUse" id="clipPath8">
                <path d="M309 53 L446 53 L446 111 L309 111 L309 53 Z"/>
            </clipPath>
            <clipPath clipPathUnits="userSpaceOnUse" id="clipPath9">
                <path d="M509 69 L669 69 L669 94 L509 94 L509 69 Z"/>
            </clipPath>
            <clipPath clipPathUnits="userSpaceOnUse" id="clipPath10">
                <path d="M515 75 L654 75 L654 88 L515 88 L515 75 Z"/>
            </clipPath>
            <clipPath clipPathUnits="userSpaceOnUse" id="clipPath11">
                <path d="M229 169 L381 169 L381 271 L229 271 L229 169 Z"/>
            </clipPath>
            <clipPath clipPathUnits="userSpaceOnUse" id="clipPath12">
                <path d="M239 189 L351 189 L351 202 L239 202 L239 189 Z"/>
            </clipPath>
            <clipPath clipPathUnits="userSpaceOnUse" id="clipPath13">
                <path d="M244 201 L285 201 L285 214 L244 214 L244 201 Z"/>
            </clipPath>
            <clipPath clipPathUnits="userSpaceOnUse" id="clipPath14">
                <path d="M229 213 L366 213 L366 271 L229 271 L229 213 Z"/>
            </clipPath>
            <clipPath clipPathUnits="userSpaceOnUse" id="clipPath15">
                <path d="M9 169 L161 169 L161 271 L9 271 L9 169 Z"/>
            </clipPath>
            <clipPath clipPathUnits="userSpaceOnUse" id="clipPath16">
                <path d="M19 189 L131 189 L131 202 L19 202 L19 189 Z"/>
            </clipPath>
            <clipPath clipPathUnits="userSpaceOnUse" id="clipPath17">
                <path d="M24 201 L65 201 L65 214 L24 214 L24 201 Z"/>
            </clipPath>
            <clipPath clipPathUnits="userSpaceOnUse" id="clipPath18">
                <path d="M9 213 L146 213 L146 271 L9 271 L9 213 Z"/>
            </clipPath>
            <clipPath clipPathUnits="userSpaceOnUse" id="clipPath19">
                <path d="M429 169 L581 169 L581 271 L429 271 L429 169 Z"/>
            </clipPath>
            <clipPath clipPathUnits="userSpaceOnUse" id="clipPath20">
                <path d="M439 189 L551 189 L551 202 L439 202 L439 189 Z"/>
            </clipPath>
            <clipPath clipPathUnits="userSpaceOnUse" id="clipPath21">
                <path d="M444 201 L524 201 L524 214 L444 214 L444 201 Z"/>
            </clipPath>
            <clipPath clipPathUnits="userSpaceOnUse" id="clipPath22">
                <path d="M429 213 L566 213 L566 271 L429 271 L429 213 Z"/>
            </clipPath>
            <clipPath clipPathUnits="userSpaceOnUse" id="clipPath23">
                <path d="M-1 -1 L679 -1 L679 281 L-1 281 L-1 -1 Z"/>
            </clipPath>
        </defs>
        <g font-size="11px" fill="rgb(195,209,213)" font-family="'.AppleSystemUIFont'" stroke-linejoin="round" stroke="rgb(195,209,213)" stroke-width="0" stroke-miterlimit="0">
            <rect x="10" width="135" height="56" y="54" clip-path="url(#clipPath1)" stroke="none"/>
            <text x="20" font-size="9px" y="39" clip-path="url(#clipPath2)" fill="black" stroke="none" xml:space="preserve">«device»</text>
            <text x="20" font-size="9px" y="51" clip-path="url(#clipPath3)" fill="black" stroke="none" xml:space="preserve">Server</text>
        </g>
        <g font-size="11px" stroke-width="1.1" font-family="'.AppleSystemUIFont'" stroke-linecap="butt">
            <rect fill="none" x="10" width="134" height="55" y="54" clip-path="url(#clipPath4)"/>
            <line y2="54" fill="none" x1="10" clip-path="url(#clipPath4)" x2="145" y1="54"/>
            <rect fill="none" x="10" width="134" height="84" y="25" clip-path="url(#clipPath1)"/>
            <line y2="10" fill="none" x1="10" clip-path="url(#clipPath1)" x2="25" y1="25"/>
            <line y2="10" fill="none" x1="144" clip-path="url(#clipPath1)" x2="159" y1="25"/>
            <line y2="95" fill="none" x1="144" clip-path="url(#clipPath1)" x2="159" y1="110"/>
            <line y2="10" fill="none" x1="25" clip-path="url(#clipPath1)" x2="160" y1="10"/>
            <line y2="95" fill="none" x1="159" clip-path="url(#clipPath1)" x2="159" y1="10"/>
            <rect x="310" y="54" clip-path="url(#clipPath5)" fill="rgb(195,209,213)" width="135" height="56" stroke="none"/>
            <text x="320" xml:space="preserve" font-size="9px" y="39" clip-path="url(#clipPath6)" stroke="none">«device»</text>
            <text x="320" xml:space="preserve" font-size="9px" y="51" clip-path="url(#clipPath7)" stroke="none">UserPC</text>
            <rect fill="none" x="310" width="134" height="55" y="54" clip-path="url(#clipPath8)"/>
            <line y2="54" fill="none" x1="310" clip-path="url(#clipPath8)" x2="445" y1="54"/>
            <rect fill="none" x="310" width="134" height="84" y="25" clip-path="url(#clipPath5)"/>
            <line y2="10" fill="none" x1="310" clip-path="url(#clipPath5)" x2="325" y1="25"/>
            <line y2="10" fill="none" x1="444" clip-path="url(#clipPath5)" x2="459" y1="25"/>
            <line y2="95" fill="none" x1="444" clip-path="url(#clipPath5)" x2="459" y1="110"/>
            <line y2="10" fill="none" x1="325" clip-path="url(#clipPath5)" x2="460" y1="10"/>
            <line y2="95" fill="none" x1="459" clip-path="url(#clipPath5)" x2="459" y1="10"/>
            <path fill="rgb(255,255,204)" d="M510 70 L510 70 L655 70 L667 82 L667 92 L510 92 L510 70 ZM510 70" fill-rule="evenodd" clip-path="url(#clipPath9)" stroke="none"/>
            <text x="516" xml:space="preserve" font-size="9px" y="85" clip-path="url(#clipPath10)" stroke="none">UserPC can me more than one!</text>
            <line y2="70" fill="none" x1="510" clip-path="url(#clipPath9)" x2="655" y1="70"/>
            <line y2="82" fill="none" x1="655" clip-path="url(#clipPath9)" x2="667" y1="70"/>
            <line y2="92" fill="none" x1="667" clip-path="url(#clipPath9)" x2="667" y1="82"/>
            <line y2="92" fill="none" x1="667" clip-path="url(#clipPath9)" x2="510" y1="92"/>
            <line y2="70" fill="none" x1="510" clip-path="url(#clipPath9)" x2="510" y1="92"/>
            <line y2="70" fill="none" x1="510" clip-path="url(#clipPath9)" x2="510" y1="70"/>
            <line y2="82" fill="none" x1="655" clip-path="url(#clipPath9)" x2="655" y1="70"/>
            <line y2="82" fill="none" x1="655" clip-path="url(#clipPath9)" x2="668" y1="82"/>
            <rect x="230" y="214" clip-path="url(#clipPath11)" fill="rgb(195,209,213)" width="135" height="56" stroke="none"/>
            <text x="240" xml:space="preserve" font-size="9px" y="199" clip-path="url(#clipPath12)" stroke="none">«executionEnvironment»</text>
            <text x="245" xml:space="preserve" font-size="9px" y="211" clip-path="url(#clipPath13)" stroke="none">FreeCAD</text>
            <rect fill="none" x="230" width="134" height="55" y="214" clip-path="url(#clipPath14)"/>
            <line y2="214" fill="none" x1="230" clip-path="url(#clipPath14)" x2="365" y1="214"/>
            <rect fill="none" x="230" width="134" height="84" y="185" clip-path="url(#clipPath11)"/>
            <line y2="170" fill="none" x1="230" clip-path="url(#clipPath11)" x2="245" y1="185"/>
            <line y2="170" fill="none" x1="364" clip-path="url(#clipPath11)" x2="379" y1="185"/>
            <line y2="255" fill="none" x1="364" clip-path="url(#clipPath11)" x2="379" y1="270"/>
            <line y2="170" fill="none" x1="245" clip-path="url(#clipPath11)" x2="380" y1="170"/>
            <line y2="255" fill="none" x1="379" clip-path="url(#clipPath11)" x2="379" y1="170"/>
            <rect x="10" y="214" clip-path="url(#clipPath15)" fill="rgb(195,209,213)" width="135" height="56" stroke="none"/>
            <text x="20" xml:space="preserve" font-size="9px" y="199" clip-path="url(#clipPath16)" stroke="none">«executionEnvironment»</text>
            <text x="25" xml:space="preserve" font-size="9px" y="211" clip-path="url(#clipPath17)" stroke="none">FreePLM</text>
            <rect fill="none" x="10" width="134" height="55" y="214" clip-path="url(#clipPath18)"/>
            <line y2="214" fill="none" x1="10" clip-path="url(#clipPath18)" x2="145" y1="214"/>
            <rect fill="none" x="10" width="134" height="84" y="185" clip-path="url(#clipPath15)"/>
            <line y2="170" fill="none" x1="10" clip-path="url(#clipPath15)" x2="25" y1="185"/>
            <line y2="170" fill="none" x1="144" clip-path="url(#clipPath15)" x2="159" y1="185"/>
            <line y2="255" fill="none" x1="144" clip-path="url(#clipPath15)" x2="159" y1="270"/>
            <line y2="170" fill="none" x1="25" clip-path="url(#clipPath15)" x2="160" y1="170"/>
            <line y2="255" fill="none" x1="159" clip-path="url(#clipPath15)" x2="159" y1="170"/>
            <rect x="430" y="214" clip-path="url(#clipPath19)" fill="rgb(195,209,213)" width="135" height="56" stroke="none"/>
            <text x="440" xml:space="preserve" font-size="9px" y="199" clip-path="url(#clipPath20)" stroke="none">«executionEnvironment»</text>
            <text x="445" xml:space="preserve" font-size="9px" y="211" clip-path="url(#clipPath21)" stroke="none">FreePLM-Add-On</text>
            <rect fill="none" x="430" width="134" height="55" y="214" clip-path="url(#clipPath22)"/>
            <line y2="214" fill="none" x1="430" clip-path="url(#clipPath22)" x2="565" y1="214"/>
            <rect fill="none" x="430" width="134" height="84" y="185" clip-path="url(#clipPath19)"/>
            <line y2="170" fill="none" x1="430" clip-path="url(#clipPath19)" x2="445" y1="185"/>
            <line y2="170" fill="none" x1="564" clip-path="url(#clipPath19)" x2="579" y1="185"/>
            <line y2="255" fill="none" x1="564" clip-path="url(#clipPath19)" x2="579" y1="270"/>
            <line y2="170" fill="none" x1="445" clip-path="url(#clipPath19)" x2="580" y1="170"/>
            <line y2="255" fill="none" x1="579" clip-path="url(#clipPath19)" x2="579" y1="170"/>
            <line clip-path="url(#clipPath23)" fill="none" text-rendering="optimizeLegibility" x1="160" x2="310" y1="90" y2="90"/>
            <line clip-path="url(#clipPath23)" fill="none" text-rendering="optimizeLegibility" x1="510" x2="460" y1="70" y2="70" stroke-dasharray="6.6,3.3"/>
            <line clip-path="url(#clipPath23)" fill="none" text-rendering="optimizeLegibility" x1="310" x2="390" y1="170" y2="110"/>
            <line clip-path="url(#clipPath23)" fill="none" text-rendering="optimizeLegibility" x1="70" x2="70" y1="170" y2="110"/>
            <line clip-path="url(#clipPath23)" fill="none" text-rendering="optimizeLegibility" x1="490" x2="390" y1="170" y2="110"/>
        </g>
    </g>
    <rect x="10" y="10" fill-opacity="0" width="150" id="Server" height="100" stroke-opacity="0"/>
    <rect x="310" y="10" fill-opacity="0" width="150" id="UserPC" height="100" stroke-opacity="0"/>
    <rect x="510" width="158" fill-opacity="0" height="23" y="70" stroke-opacity="0"/>
    <rect x="230" y="170" fill-opacity="0" width="150" id="FreeCAD" height="100" stroke-opacity="0"/>
    <rect x="10" y="170" fill-opacity="0" width="150" id="FreePLM" height="100" stroke-opacity="0"/>
    <rect x="430" y="170" fill-opacity="0" width="150" id="FreePLM-Add-On" height="100" stroke-opacity="0"/>
</svg>
