<?xml version="1.0" encoding="UTF-8"?><svg xmlns="http://www.w3.org/2000/svg" xmlns:xlink="http://www.w3.org/1999/xlink" stroke-dasharray="none" shape-rendering="auto" font-family="'Dialog'" width="478" text-rendering="auto" fill-opacity="1" contentScriptType="text/ecmascript" color-interpolation="auto" color-rendering="auto" preserveAspectRatio="xMidYMid meet" font-size="12px" viewBox="0 0 478 163" fill="black" stroke="black" image-rendering="auto" stroke-miterlimit="10" zoomAndPan="magnify" version="1.0" stroke-linecap="square" stroke-linejoin="miter" contentStyleType="text/css" font-style="normal" height="163" stroke-width="1" stroke-dashoffset="0" font-weight="normal" stroke-opacity="1">
    <!--Generated by the Batik Graphics2D SVG Generator-->
    <defs id="genericDefs"/>
    <g>
        <defs id="defs1">
            <clipPath clipPathUnits="userSpaceOnUse" id="clipPath1">
                <path d="M9 9 L161 9 L161 111 L9 111 L9 9 Z"/>
            </clipPath>
            <clipPath clipPathUnits="userSpaceOnUse" id="clipPath2">
                <path d="M19 29 L63 29 L63 42 L19 42 L19 29 Z"/>
            </clipPath>
            <clipPath clipPathUnits="userSpaceOnUse" id="clipPath3">
                <path d="M19 41 L50 41 L50 54 L19 54 L19 41 Z"/>
            </clipPath>
            <clipPath clipPathUnits="userSpaceOnUse" id="clipPath4">
                <path d="M9 53 L146 53 L146 111 L9 111 L9 53 Z"/>
            </clipPath>
            <clipPath clipPathUnits="userSpaceOnUse" id="clipPath5">
                <path d="M309 9 L461 9 L461 111 L309 111 L309 9 Z"/>
            </clipPath>
            <clipPath clipPathUnits="userSpaceOnUse" id="clipPath6">
                <path d="M319 29 L363 29 L363 42 L319 42 L319 29 Z"/>
            </clipPath>
            <clipPath clipPathUnits="userSpaceOnUse" id="clipPath7">
                <path d="M319 41 L355 41 L355 54 L319 54 L319 41 Z"/>
            </clipPath>
            <clipPath clipPathUnits="userSpaceOnUse" id="clipPath8">
                <path d="M309 53 L446 53 L446 111 L309 111 L309 53 Z"/>
            </clipPath>
            <clipPath clipPathUnits="userSpaceOnUse" id="clipPath9">
                <path d="M309 129 L469 129 L469 154 L309 154 L309 129 Z"/>
            </clipPath>
            <clipPath clipPathUnits="userSpaceOnUse" id="clipPath10">
                <path d="M315 135 L454 135 L454 148 L315 148 L315 135 Z"/>
            </clipPath>
            <clipPath clipPathUnits="userSpaceOnUse" id="clipPath11">
                <path d="M-1 -1 L479 -1 L479 164 L-1 164 L-1 -1 Z"/>
            </clipPath>
        </defs>
        <g font-size="11px" fill="rgb(195,209,213)" font-family="'.AppleSystemUIFont'" stroke-linejoin="round" stroke="rgb(195,209,213)" stroke-width="0" stroke-miterlimit="0">
            <rect x="10" width="135" height="56" y="54" clip-path="url(#clipPath1)" stroke="none"/>
            <text x="20" font-size="9px" y="39" clip-path="url(#clipPath2)" fill="black" stroke="none" xml:space="preserve">«device»</text>
            <text x="20" font-size="9px" y="51" clip-path="url(#clipPath3)" fill="black" stroke="none" xml:space="preserve">Server</text>
        </g>
        <g font-size="11px" stroke-width="1.1" font-family="'.AppleSystemUIFont'" stroke-linecap="butt">
            <rect fill="none" x="10" width="134" height="55" y="54" clip-path="url(#clipPath4)"/>
            <line y2="54" fill="none" x1="10" clip-path="url(#clipPath4)" x2="145" y1="54"/>
            <rect fill="none" x="10" width="134" height="84" y="25" clip-path="url(#clipPath1)"/>
            <line y2="10" fill="none" x1="10" clip-path="url(#clipPath1)" x2="25" y1="25"/>
            <line y2="10" fill="none" x1="144" clip-path="url(#clipPath1)" x2="159" y1="25"/>
            <line y2="95" fill="none" x1="144" clip-path="url(#clipPath1)" x2="159" y1="110"/>
            <line y2="10" fill="none" x1="25" clip-path="url(#clipPath1)" x2="160" y1="10"/>
            <line y2="95" fill="none" x1="159" clip-path="url(#clipPath1)" x2="159" y1="10"/>
            <rect x="310" y="54" clip-path="url(#clipPath5)" fill="rgb(195,209,213)" width="135" height="56" stroke="none"/>
            <text x="320" xml:space="preserve" font-size="9px" y="39" clip-path="url(#clipPath6)" stroke="none">«device»</text>
            <text x="320" xml:space="preserve" font-size="9px" y="51" clip-path="url(#clipPath7)" stroke="none">UserPC</text>
            <rect fill="none" x="310" width="134" height="55" y="54" clip-path="url(#clipPath8)"/>
            <line y2="54" fill="none" x1="310" clip-path="url(#clipPath8)" x2="445" y1="54"/>
            <rect fill="none" x="310" width="134" height="84" y="25" clip-path="url(#clipPath5)"/>
            <line y2="10" fill="none" x1="310" clip-path="url(#clipPath5)" x2="325" y1="25"/>
            <line y2="10" fill="none" x1="444" clip-path="url(#clipPath5)" x2="459" y1="25"/>
            <line y2="95" fill="none" x1="444" clip-path="url(#clipPath5)" x2="459" y1="110"/>
            <line y2="10" fill="none" x1="325" clip-path="url(#clipPath5)" x2="460" y1="10"/>
            <line y2="95" fill="none" x1="459" clip-path="url(#clipPath5)" x2="459" y1="10"/>
            <path fill="rgb(255,255,204)" d="M310 130 L310 130 L455 130 L467 142 L467 152 L310 152 L310 130 ZM310 130" fill-rule="evenodd" clip-path="url(#clipPath9)" stroke="none"/>
            <text x="316" xml:space="preserve" font-size="9px" y="145" clip-path="url(#clipPath10)" stroke="none">UserPC can me more than one!</text>
            <line y2="130" fill="none" x1="310" clip-path="url(#clipPath9)" x2="455" y1="130"/>
            <line y2="142" fill="none" x1="455" clip-path="url(#clipPath9)" x2="467" y1="130"/>
            <line y2="152" fill="none" x1="467" clip-path="url(#clipPath9)" x2="467" y1="142"/>
            <line y2="152" fill="none" x1="467" clip-path="url(#clipPath9)" x2="310" y1="152"/>
            <line y2="130" fill="none" x1="310" clip-path="url(#clipPath9)" x2="310" y1="152"/>
            <line y2="130" fill="none" x1="310" clip-path="url(#clipPath9)" x2="310" y1="130"/>
            <line y2="142" fill="none" x1="455" clip-path="url(#clipPath9)" x2="455" y1="130"/>
            <line y2="142" fill="none" x1="455" clip-path="url(#clipPath9)" x2="468" y1="142"/>
            <line clip-path="url(#clipPath11)" fill="none" text-rendering="optimizeLegibility" x1="160" x2="310" y1="90" y2="90"/>
            <line clip-path="url(#clipPath11)" fill="none" text-rendering="optimizeLegibility" x1="370" x2="370" y1="130" y2="110" stroke-dasharray="6.6,3.3"/>
        </g>
    </g>
    <rect x="10" y="10" fill-opacity="0" width="150" id="Server" height="100" stroke-opacity="0"/>
    <rect x="310" y="10" fill-opacity="0" width="150" id="UserPC" height="100" stroke-opacity="0"/>
    <rect x="310" width="158" fill-opacity="0" height="23" y="130" stroke-opacity="0"/>
</svg>
